<mxfile host="app.diagrams.net" modified="2024-01-27T00:18:14.285Z" agent="Mozilla/5.0 (Windows NT 10.0; Win64; x64) AppleWebKit/537.36 (KHTML, like Gecko) Chrome/121.0.0.0 Safari/537.36" etag="kd4GtPpmcU7oRgbhxjoI" version="23.0.2" type="github">
  <diagram name="Page-1" id="uVVyMuQPiUV3GlmEv2QM">
    <mxGraphModel dx="123" dy="544" grid="1" gridSize="10" guides="1" tooltips="1" connect="1" arrows="1" fold="1" page="1" pageScale="1" pageWidth="850" pageHeight="1100" math="0" shadow="0">
      <root>
        <mxCell id="0" />
        <mxCell id="1" parent="0" />
        <mxCell id="f4QK-veqhP7_v42DNwUu-1" value="Windows 10 Client Wazuh Agent" style="sketch=0;pointerEvents=1;shadow=0;dashed=0;html=1;strokeColor=none;fillColor=#505050;labelPosition=center;verticalLabelPosition=bottom;verticalAlign=top;outlineConnect=0;align=center;shape=mxgraph.office.devices.workstation_pc;fontStyle=1" vertex="1" parent="1">
          <mxGeometry x="400" y="530" width="53" height="59" as="geometry" />
        </mxCell>
        <mxCell id="f4QK-veqhP7_v42DNwUu-9" style="edgeStyle=orthogonalEdgeStyle;rounded=0;orthogonalLoop=1;jettySize=auto;html=1;shape=link;strokeColor=#666666;fillColor=#f5f5f5;" edge="1" parent="1" source="f4QK-veqhP7_v42DNwUu-2" target="f4QK-veqhP7_v42DNwUu-3">
          <mxGeometry relative="1" as="geometry" />
        </mxCell>
        <mxCell id="f4QK-veqhP7_v42DNwUu-2" value="Router" style="sketch=0;aspect=fixed;pointerEvents=1;shadow=0;dashed=0;html=1;strokeColor=none;labelPosition=center;verticalLabelPosition=bottom;verticalAlign=top;align=center;fillColor=#00188D;shape=mxgraph.mscae.enterprise.router;labelBackgroundColor=none;labelBorderColor=none;fontStyle=1" vertex="1" parent="1">
          <mxGeometry x="390" y="380" width="50" height="39" as="geometry" />
        </mxCell>
        <mxCell id="f4QK-veqhP7_v42DNwUu-11" value="2. Receive Events" style="edgeStyle=orthogonalEdgeStyle;rounded=0;orthogonalLoop=1;jettySize=auto;html=1;shape=link;strokeColor=#666666;fillColor=#f5f5f5;" edge="1" parent="1" source="f4QK-veqhP7_v42DNwUu-3" target="f4QK-veqhP7_v42DNwUu-4">
          <mxGeometry x="-0.0015" relative="1" as="geometry">
            <mxPoint as="offset" />
          </mxGeometry>
        </mxCell>
        <mxCell id="f4QK-veqhP7_v42DNwUu-16" value="7. Send &amp;amp; Receive Email" style="rounded=0;orthogonalLoop=1;jettySize=auto;html=1;shape=link;fillColor=#fff2cc;strokeColor=#d6b656;" edge="1" parent="1" source="f4QK-veqhP7_v42DNwUu-3" target="f4QK-veqhP7_v42DNwUu-7">
          <mxGeometry x="-0.0553" relative="1" as="geometry">
            <Array as="points">
              <mxPoint x="580" y="236" />
            </Array>
            <mxPoint as="offset" />
          </mxGeometry>
        </mxCell>
        <mxCell id="f4QK-veqhP7_v42DNwUu-18" style="rounded=0;orthogonalLoop=1;jettySize=auto;html=1;fillColor=#f8cecc;strokeColor=#b85450;shape=link;" edge="1" parent="1" source="f4QK-veqhP7_v42DNwUu-3" target="f4QK-veqhP7_v42DNwUu-6">
          <mxGeometry relative="1" as="geometry">
            <Array as="points">
              <mxPoint x="310" y="160" />
            </Array>
          </mxGeometry>
        </mxCell>
        <mxCell id="f4QK-veqhP7_v42DNwUu-3" value="Internet" style="image;aspect=fixed;perimeter=ellipsePerimeter;html=1;align=center;shadow=0;dashed=0;spacingTop=3;image=img/lib/active_directory/internet_cloud.svg;fontStyle=1" vertex="1" parent="1">
          <mxGeometry x="390" y="220" width="50" height="31.5" as="geometry" />
        </mxCell>
        <mxCell id="f4QK-veqhP7_v42DNwUu-12" value="3. Send Triggered Alerts" style="rounded=0;orthogonalLoop=1;jettySize=auto;html=1;shape=link;fillColor=#dae8fc;strokeColor=#6c8ebf;" edge="1" parent="1" source="f4QK-veqhP7_v42DNwUu-4" target="f4QK-veqhP7_v42DNwUu-6">
          <mxGeometry x="-0.1334" y="-4" relative="1" as="geometry">
            <Array as="points">
              <mxPoint x="240" y="120" />
            </Array>
            <mxPoint as="offset" />
          </mxGeometry>
        </mxCell>
        <mxCell id="f4QK-veqhP7_v42DNwUu-20" value="8. Send Responsive Action" style="rounded=0;orthogonalLoop=1;jettySize=auto;html=1;shape=link;fillColor=#f8cecc;strokeColor=#b85450;" edge="1" parent="1" source="f4QK-veqhP7_v42DNwUu-4" target="f4QK-veqhP7_v42DNwUu-1">
          <mxGeometry x="-0.4379" y="2" relative="1" as="geometry">
            <Array as="points">
              <mxPoint x="175" y="560" />
            </Array>
            <mxPoint as="offset" />
          </mxGeometry>
        </mxCell>
        <mxCell id="f4QK-veqhP7_v42DNwUu-4" value="Wazah Manager" style="image;aspect=fixed;perimeter=ellipsePerimeter;html=1;align=center;shadow=0;dashed=0;spacingTop=3;image=img/lib/active_directory/internet_cloud.svg;fontStyle=1" vertex="1" parent="1">
          <mxGeometry x="150" y="220" width="50" height="31.5" as="geometry" />
        </mxCell>
        <mxCell id="f4QK-veqhP7_v42DNwUu-5" value="TheHive" style="image;aspect=fixed;perimeter=ellipsePerimeter;html=1;align=center;shadow=0;dashed=0;spacingTop=3;image=img/lib/active_directory/internet_cloud.svg;fontStyle=1" vertex="1" parent="1">
          <mxGeometry x="674.5" y="20" width="50" height="31.5" as="geometry" />
        </mxCell>
        <mxCell id="f4QK-veqhP7_v42DNwUu-13" value="4. OSINT Enrich I.O.Cs" style="edgeStyle=orthogonalEdgeStyle;rounded=0;orthogonalLoop=1;jettySize=auto;html=1;shape=link;fillColor=#d5e8d4;strokeColor=#82b366;width=4.2857142857142865;" edge="1" parent="1" source="f4QK-veqhP7_v42DNwUu-6" target="f4QK-veqhP7_v42DNwUu-3">
          <mxGeometry x="0.1666" relative="1" as="geometry">
            <mxPoint as="offset" />
          </mxGeometry>
        </mxCell>
        <mxCell id="f4QK-veqhP7_v42DNwUu-14" value="5. Send Alerts" style="rounded=0;orthogonalLoop=1;jettySize=auto;html=1;fillColor=#dae8fc;strokeColor=#6c8ebf;shape=link;" edge="1" parent="1" source="f4QK-veqhP7_v42DNwUu-6" target="f4QK-veqhP7_v42DNwUu-5">
          <mxGeometry x="0.0369" y="-2" relative="1" as="geometry">
            <Array as="points" />
            <mxPoint as="offset" />
          </mxGeometry>
        </mxCell>
        <mxCell id="f4QK-veqhP7_v42DNwUu-15" value="6. Send Email" style="rounded=0;orthogonalLoop=1;jettySize=auto;html=1;fillColor=#fff2cc;strokeColor=#d6b656;shape=link;" edge="1" parent="1" source="f4QK-veqhP7_v42DNwUu-6" target="f4QK-veqhP7_v42DNwUu-3">
          <mxGeometry x="0.1391" relative="1" as="geometry">
            <mxPoint x="414.71" y="111.5" as="sourcePoint" />
            <mxPoint x="414.71" y="220" as="targetPoint" />
            <Array as="points">
              <mxPoint x="520" y="160" />
            </Array>
            <mxPoint as="offset" />
          </mxGeometry>
        </mxCell>
        <mxCell id="f4QK-veqhP7_v42DNwUu-19" value="8. Send Responsive Action" style="edgeStyle=orthogonalEdgeStyle;rounded=0;orthogonalLoop=1;jettySize=auto;html=1;fillColor=#f8cecc;strokeColor=#b85450;shape=link;" edge="1" parent="1" source="f4QK-veqhP7_v42DNwUu-6" target="f4QK-veqhP7_v42DNwUu-4">
          <mxGeometry x="-0.0009" relative="1" as="geometry">
            <mxPoint as="offset" />
          </mxGeometry>
        </mxCell>
        <mxCell id="f4QK-veqhP7_v42DNwUu-6" value="Shuffle" style="image;aspect=fixed;perimeter=ellipsePerimeter;html=1;align=center;shadow=0;dashed=0;spacingTop=3;image=img/lib/active_directory/internet_cloud.svg;fontStyle=1" vertex="1" parent="1">
          <mxGeometry x="390" y="20" width="50" height="31.5" as="geometry" />
        </mxCell>
        <mxCell id="f4QK-veqhP7_v42DNwUu-17" value="8. Send Responsive Action" style="rounded=0;orthogonalLoop=1;jettySize=auto;html=1;fillColor=#f8cecc;strokeColor=#b85450;shape=link;" edge="1" parent="1" source="f4QK-veqhP7_v42DNwUu-7" target="f4QK-veqhP7_v42DNwUu-3">
          <mxGeometry relative="1" as="geometry">
            <Array as="points">
              <mxPoint x="620" y="380" />
            </Array>
          </mxGeometry>
        </mxCell>
        <mxCell id="f4QK-veqhP7_v42DNwUu-7" value="SOC Analyst" style="sketch=0;pointerEvents=1;shadow=0;dashed=0;html=1;strokeColor=none;fillColor=#505050;labelPosition=center;verticalLabelPosition=bottom;verticalAlign=top;outlineConnect=0;align=center;shape=mxgraph.office.devices.workstation_pc;fontStyle=1" vertex="1" parent="1">
          <mxGeometry x="674.5" y="350" width="53" height="59" as="geometry" />
        </mxCell>
        <mxCell id="f4QK-veqhP7_v42DNwUu-8" value="1. Send Events" style="edgeStyle=orthogonalEdgeStyle;rounded=0;orthogonalLoop=1;jettySize=auto;html=1;entryX=0.5;entryY=1.128;entryDx=0;entryDy=0;entryPerimeter=0;startArrow=classic;startFill=1;shape=link;strokeColor=#666666;fillColor=#f5f5f5;" edge="1" parent="1" source="f4QK-veqhP7_v42DNwUu-1" target="f4QK-veqhP7_v42DNwUu-2">
          <mxGeometry x="-0.0567" relative="1" as="geometry">
            <Array as="points">
              <mxPoint x="415" y="500" />
              <mxPoint x="415" y="500" />
            </Array>
            <mxPoint as="offset" />
          </mxGeometry>
        </mxCell>
        <mxCell id="f4QK-veqhP7_v42DNwUu-21" value="&lt;pre&gt;&lt;font style=&quot;font-size: 10px;&quot;&gt;Perform Case Management Based on Alerts&lt;/font&gt;&lt;/pre&gt;" style="text;html=1;align=center;verticalAlign=middle;resizable=0;points=[];autosize=1;strokeColor=none;fillColor=none;" vertex="1" parent="1">
          <mxGeometry x="570" y="58" width="240" height="50" as="geometry" />
        </mxCell>
      </root>
    </mxGraphModel>
  </diagram>
</mxfile>
